<?xml version="1.0" standalone="no"?>
<!DOCTYPE svg PUBLIC "-//W3C//DTD SVG 20010904//EN"
 "http://www.w3.org/TR/2001/REC-SVG-20010904/DTD/svg10.dtd">
<svg version="1.0" xmlns="http://www.w3.org/2000/svg"
 width="512.000000pt" height="512.000000pt" viewBox="0 0 512.000000 512.000000"
 preserveAspectRatio="xMidYMid meet">

<g transform="translate(0.000000,512.000000) scale(0.100000,-0.100000)"
fill="#000000" stroke="none">
<path d="M3610 4883 c-32 -11 -40 -37 -40 -125 l0 -88 50 0 51 0 -3 96 c-3 84
-6 98 -23 109 -11 7 -27 10 -35 8z"/>
<path d="M1510 4861 c-5 -11 -10 -58 -10 -105 l0 -86 50 0 50 0 0 93 c0 59 -4
97 -12 105 -19 19 -66 15 -78 -7z"/>
<path d="M1932 4868 c-8 -8 -12 -46 -12 -105 l0 -93 50 0 50 0 0 86 c0 47 -5
94 -10 105 -12 22 -59 26 -78 7z"/>
<path d="M2340 4861 c-5 -11 -10 -58 -10 -105 l0 -86 50 0 50 0 0 93 c0 59 -4
97 -12 105 -19 19 -66 15 -78 -7z"/>
<path d="M2760 4870 c-12 -7 -15 -30 -15 -102 l0 -93 53 -3 52 -3 0 80 c0 102
-10 131 -47 131 -16 0 -35 -5 -43 -10z"/>
<path d="M3172 4868 c-8 -8 -12 -46 -12 -105 l0 -93 50 0 50 0 0 93 c0 101 -7
117 -50 117 -14 0 -31 -5 -38 -12z"/>
<path d="M1434 4520 c-43 -17 -54 -48 -54 -147 l0 -93 1180 0 1180 0 0 94 c0
86 -2 98 -24 123 l-24 28 -1119 2 c-617 1 -1128 -2 -1139 -7z"/>
<path d="M1191 4159 c-88 -17 -173 -87 -215 -178 l-21 -46 0 -1375 0 -1375 28
-57 c32 -65 89 -121 156 -152 l46 -21 1375 0 1375 0 57 28 c65 32 121 89 152
156 l21 46 0 1375 0 1375 -21 46 c-31 67 -87 124 -152 156 l-57 28 -1350 2
c-742 0 -1370 -3 -1394 -8z m725 -233 c16 -12 20 -29 22 -105 l4 -91 109 0
109 0 0 85 c0 72 3 88 20 105 24 24 49 25 76 6 16 -12 20 -29 22 -105 l4 -91
109 0 109 0 0 85 c0 72 3 88 20 105 11 11 28 20 38 20 39 -1 47 -17 52 -112
l5 -93 113 -3 112 -3 0 86 c0 72 3 88 20 105 24 24 53 26 74 4 12 -12 16 -37
16 -105 l0 -89 115 0 115 0 0 85 c0 72 3 88 20 105 24 24 47 25 72 3 15 -13
18 -32 18 -103 l0 -87 68 -5 c128 -9 241 -87 303 -209 27 -53 33 -79 37 -146
l5 -83 85 0 c65 0 90 -4 104 -17 24 -21 23 -48 -2 -73 -17 -17 -33 -20 -105
-20 l-86 0 3 -112 3 -113 93 -5 c95 -5 111 -13 112 -52 0 -10 -9 -27 -20 -38
-17 -17 -33 -20 -105 -20 l-86 0 3 -112 3 -113 93 -5 c95 -5 111 -13 112 -52
0 -10 -9 -27 -20 -38 -17 -17 -33 -20 -105 -20 l-85 0 0 -109 0 -109 91 -4
c76 -2 93 -6 105 -22 18 -25 18 -47 0 -72 -12 -16 -29 -20 -105 -22 l-91 -4 0
-108 0 -108 91 -4 c76 -2 93 -6 105 -22 18 -25 18 -47 0 -72 -12 -16 -29 -20
-104 -22 l-90 -4 -4 -76 c-11 -186 -151 -332 -335 -350 l-68 -7 -5 -93 c-5
-98 -12 -112 -57 -112 -38 0 -53 36 -53 128 l0 83 -112 -3 -113 -3 -5 -93 c-5
-98 -12 -112 -57 -112 -38 0 -53 36 -53 128 l0 83 -112 -3 -113 -3 -3 -90 c-3
-96 -12 -115 -58 -115 -39 0 -54 36 -54 127 l0 83 -109 0 -109 0 -4 -91 c-3
-98 -15 -119 -64 -119 -39 0 -54 36 -54 127 l0 83 -109 0 -109 0 -4 -91 c-3
-98 -15 -119 -64 -119 -39 0 -54 36 -54 126 l0 82 -62 4 c-125 8 -243 89 -300
206 -27 54 -34 81 -37 144 l-3 78 -77 0 c-93 0 -125 14 -129 57 -5 48 25 63
125 63 l83 0 0 110 0 110 -77 0 c-95 0 -127 14 -131 57 -5 48 25 63 125 63
l83 0 0 110 0 110 -83 0 c-96 0 -127 14 -127 59 0 16 6 33 13 39 7 6 53 12
103 14 l89 3 3 113 3 112 -83 0 c-97 0 -128 14 -128 59 0 16 6 33 13 39 7 6
53 12 103 14 l89 3 3 113 3 112 -83 0 c-92 0 -128 15 -128 54 0 46 19 55 115
58 l90 3 5 80 c7 101 41 176 107 243 64 64 145 103 227 109 l64 6 4 89 c2 75
6 92 22 104 11 8 27 14 36 14 9 0 25 -6 36 -14z"/>
<path d="M1701 3603 c-26 -9 -65 -36 -91 -62 -84 -84 -80 -32 -80 -981 0 -919
-2 -887 61 -963 17 -20 52 -49 77 -65 l47 -27 824 -3 c937 -3 887 -7 971 77
84 84 80 32 80 981 0 949 4 897 -80 980 -83 84 -34 80 -954 79 -710 0 -817 -3
-855 -16z m1480 -245 c54 -24 114 -82 141 -136 l23 -47 0 -615 c0 -568 -1
-618 -18 -653 -26 -55 -81 -112 -135 -139 l-47 -23 -585 0 -585 0 -47 23 c-63
31 -124 102 -143 165 -22 73 -22 1179 -1 1251 26 86 100 159 184 182 36 10
179 13 612 11 501 -2 569 -4 601 -19z"/>
<path d="M1994 3259 c-42 -12 -92 -64 -104 -108 -13 -48 -13 -1134 0 -1180 13
-46 65 -99 110 -111 45 -13 1060 -13 1114 0 51 11 105 65 116 116 12 51 12
1117 1 1168 -12 48 -64 103 -111 116 -45 13 -1083 12 -1126 -1z m237 -158 c20
-20 29 -39 29 -61 0 -37 -47 -90 -79 -90 -39 0 -71 20 -88 54 -14 29 -14 39
-3 66 26 62 95 77 141 31z m392 1 c10 -10 20 -35 24 -55 5 -31 1 -40 -25 -67
-41 -40 -83 -41 -123 -1 -31 32 -36 61 -16 101 25 50 99 62 140 22z m366 13
c16 -8 34 -28 41 -45 24 -57 -24 -120 -91 -120 -32 0 -79 53 -79 90 0 22 9 41
29 61 33 32 58 36 100 14z m-758 -334 c20 -20 29 -39 29 -61 0 -37 -47 -90
-79 -90 -39 0 -71 20 -88 54 -14 29 -14 39 -3 66 26 62 95 77 141 31z m392 1
c10 -10 20 -35 24 -55 5 -31 1 -40 -25 -67 -41 -40 -83 -41 -123 -1 -63 63
-12 160 76 146 16 -3 38 -14 48 -23z m366 13 c16 -8 34 -28 41 -45 24 -57 -24
-120 -91 -120 -32 0 -79 53 -79 90 0 22 9 41 29 61 33 32 58 36 100 14z m-758
-334 c39 -40 39 -82 0 -122 -46 -46 -109 -34 -138 25 -14 29 -14 39 -3 66 26
62 95 77 141 31z m392 1 c10 -10 20 -35 24 -55 5 -31 1 -40 -25 -67 -41 -40
-83 -41 -123 -1 -31 32 -36 61 -16 101 25 50 99 62 140 22z m366 13 c16 -8 34
-28 41 -45 24 -57 -24 -120 -91 -120 -32 0 -79 53 -79 90 0 22 9 41 29 61 33
32 58 36 100 14z m-758 -334 c39 -40 39 -82 0 -122 -46 -46 -109 -34 -138 25
-14 29 -14 39 -3 66 26 62 95 77 141 31z m392 1 c10 -10 20 -35 24 -55 5 -31
1 -40 -25 -67 -41 -40 -83 -41 -123 -1 -63 63 -12 160 76 146 16 -3 38 -14 48
-23z m366 13 c16 -8 34 -28 41 -45 24 -57 -24 -120 -91 -120 -32 0 -79 53 -79
90 0 22 9 41 29 61 33 32 58 36 100 14z"/>
<path d="M623 3716 l-28 -24 0 -1132 0 -1132 28 -24 c25 -22 37 -24 123 -24
l94 0 0 1180 0 1180 -94 0 c-86 0 -98 -2 -123 -24z"/>
<path d="M4280 2560 l0 -1180 94 0 c86 0 98 2 123 24 l28 24 0 1132 0 1132
-28 24 c-25 22 -37 24 -123 24 l-94 0 0 -1180z"/>
<path d="M270 3667 c-32 -16 -40 -65 -14 -84 11 -8 50 -13 106 -13 l89 0 -3
53 -3 52 -75 3 c-46 1 -85 -3 -100 -11z"/>
<path d="M4670 3570 l0 -50 93 0 c101 0 117 7 117 52 0 38 -25 48 -124 48
l-86 0 0 -50z"/>
<path d="M252 3248 c-15 -15 -15 -61 0 -76 8 -8 46 -12 105 -12 l93 0 0 50 0
50 -93 0 c-59 0 -97 -4 -105 -12z"/>
<path d="M4670 3150 l0 -50 86 0 c99 0 124 10 124 48 0 45 -16 52 -117 52
l-93 0 0 -50z"/>
<path d="M263 2840 c-18 -7 -23 -17 -23 -45 0 -46 26 -57 129 -53 l76 3 3 53
3 52 -83 -1 c-46 0 -93 -4 -105 -9z"/>
<path d="M4670 2740 l0 -50 93 0 c101 0 117 7 117 52 0 38 -25 48 -124 48
l-86 0 0 -50z"/>
<path d="M252 2418 c-19 -19 -15 -66 7 -78 11 -5 58 -10 105 -10 l86 0 0 50 0
50 -93 0 c-59 0 -97 -4 -105 -12z"/>
<path d="M4670 2326 l0 -56 79 0 c102 0 131 10 131 47 0 52 -11 58 -115 61
l-95 4 0 -56z"/>
<path d="M244 1995 c-15 -23 -15 -27 0 -50 16 -24 21 -25 111 -25 l95 0 0 50
0 50 -95 0 c-90 0 -95 -1 -111 -25z"/>
<path d="M4670 1910 l0 -50 93 0 c101 0 117 7 117 50 0 43 -16 50 -117 50
l-93 0 0 -50z"/>
<path d="M252 1588 c-19 -19 -15 -66 7 -78 11 -5 58 -10 105 -10 l86 0 0 50 0
50 -93 0 c-59 0 -97 -4 -105 -12z"/>
<path d="M4672 1498 l3 -53 75 -3 c90 -3 124 11 128 53 5 44 -18 55 -120 55
l-89 0 3 -52z"/>
<path d="M1380 746 c0 -86 2 -98 24 -123 l24 -28 1132 0 1132 0 24 28 c22 25
24 37 24 123 l0 94 -1180 0 -1180 0 0 -94z"/>
<path d="M1442 355 c3 -101 11 -118 54 -118 43 0 54 26 54 125 l0 88 -56 0
-56 0 4 -95z"/>
<path d="M1860 355 c0 -90 1 -95 25 -111 23 -15 27 -15 50 0 24 16 25 21 25
111 l0 95 -50 0 -50 0 0 -95z"/>
<path d="M2270 362 c0 -99 11 -124 54 -124 44 0 51 15 51 115 l0 92 -52 3 -53
3 0 -89z"/>
<path d="M2690 355 c0 -90 1 -95 25 -111 23 -15 27 -15 50 0 24 16 25 21 25
111 l0 95 -50 0 -50 0 0 -95z"/>
<path d="M3100 362 c0 -89 8 -113 41 -125 9 -3 26 1 38 9 19 14 21 25 21 110
l0 94 -50 0 -50 0 0 -88z"/>
<path d="M3520 356 c0 -85 2 -96 21 -110 12 -8 29 -12 38 -9 33 12 41 36 41
125 l0 88 -50 0 -50 0 0 -94z"/>
</g>
</svg>
